<?xml version="1.0" encoding="UTF-8" standalone="no"?>
<!DOCTYPE svg PUBLIC "-//W3C//DTD SVG 1.1//EN" "http://www.w3.org/Graphics/SVG/1.1/DTD/svg11.dtd">
<svg version="1.1" xmlns="http://www.w3.org/2000/svg" xmlns:xlink="http://www.w3.org/1999/xlink" preserveAspectRatio="xMidYMid meet" viewBox="0 0 1000 750" width="1000" height="750"><defs><path d="M599.77 417.87L516.66 417.87L516.18 418.96L513.59 424.2L510.8 429.32L507.83 434.33L504.67 439.21L501.32 443.95L497.81 448.56L494.12 453.03L490.27 457.35L486.25 461.52L482.08 465.53L477.76 469.39L473.29 473.07L468.68 476.59L463.94 479.93L459.06 483.09L454.06 486.07L448.93 488.86L443.69 491.45L438.33 493.84L432.87 496.02L427.31 498L421.64 499.76L415.89 501.31L410.05 502.63L404.12 503.72L398.11 504.57L392.04 505.19L385.89 505.57L379.68 505.69L373.47 505.57L367.32 505.19L361.25 504.57L355.24 503.72L349.32 502.63L343.47 501.31L337.72 499.76L332.06 498L326.49 496.02L321.03 493.84L315.67 491.45L310.43 488.86L305.3 486.07L300.3 483.09L295.42 479.93L290.68 476.59L286.07 473.07L281.6 469.39L277.28 465.53L273.11 461.52L269.1 457.35L265.24 453.03L261.55 448.56L258.04 443.95L254.7 439.21L251.53 434.33L248.56 429.32L245.77 424.2L243.18 418.96L240.79 413.6L238.6 408.14L236.63 402.57L234.86 396.91L233.32 391.15L232 385.31L230.91 379.38L230.05 373.38L229.44 367.3L229.06 361.16L228.94 354.95L229.06 348.74L229.44 342.59L230.05 336.51L230.91 330.51L232 324.58L233.32 318.74L234.86 312.98L236.63 307.32L238.6 301.76L240.79 296.29L243.18 290.94L245.77 285.7L248.56 280.57L251.53 275.57L254.7 270.69L258.04 265.94L261.55 261.33L265.24 256.87L269.1 252.55L273.11 248.38L277.28 244.36L281.6 240.51L286.07 236.82L290.68 233.3L295.42 229.96L300.3 226.8L305.3 223.82L310.43 221.04L315.67 218.45L321.03 216.06L326.49 213.87L332.06 211.89L337.72 210.13L343.47 208.59L349.32 207.27L355.24 206.18L361.25 205.32L367.32 204.7L373.47 204.33L379.68 204.2L385.89 204.33L392.04 204.7L398.11 205.32L404.12 206.18L410.05 207.27L415.89 208.59L421.64 210.13L427.31 211.89L432.87 213.87L438.33 216.06L443.69 218.45L448.93 221.04L454.06 223.82L459.06 226.8L463.94 229.96L467.87 232.73L458.41 263.67L411.3 417.87L516.66 417.87L518.57 413.6L520.76 408.14L522.74 402.57L524.5 396.91L526.04 391.15L527.36 385.31L528.45 379.38L529.31 373.38L529.93 367.3L530.3 361.16L530.43 354.95L530.3 348.74L529.93 342.59L529.31 336.51L528.45 330.51L527.36 324.58L526.04 318.74L524.5 312.98L522.74 307.32L520.76 301.76L518.57 296.29L516.18 290.94L513.59 285.7L510.8 280.57L507.83 275.57L504.67 270.69L501.32 265.94L497.81 261.33L494.12 256.87L490.27 252.55L486.25 248.38L482.08 244.36L477.76 240.51L473.29 236.82L468.68 233.3L467.87 232.73L505.53 109.47L552.65 263.67L599.77 417.87Z" id="a1aOld7JLH"></path></defs><g><g><g><g><filter id="shadow9485461" x="209.94" y="90.47" width="413.83" height="437.22" filterUnits="userSpaceOnUse" primitiveUnits="userSpaceOnUse"><feFlood></feFlood><feComposite in2="SourceAlpha" operator="in"></feComposite><feGaussianBlur stdDeviation="2"></feGaussianBlur><feOffset dx="5" dy="3" result="afterOffset"></feOffset><feFlood flood-color="#000000" flood-opacity="0.5"></feFlood><feComposite in2="afterOffset" operator="in"></feComposite><feMorphology operator="dilate" radius="1"></feMorphology><feComposite in2="SourceAlpha" operator="out"></feComposite></filter><path d="M599.77 417.87L516.66 417.87L516.18 418.96L513.59 424.2L510.8 429.32L507.83 434.33L504.67 439.21L501.32 443.95L497.81 448.56L494.12 453.03L490.27 457.35L486.25 461.52L482.08 465.53L477.76 469.39L473.29 473.07L468.68 476.59L463.94 479.93L459.06 483.09L454.06 486.07L448.93 488.86L443.69 491.45L438.33 493.84L432.87 496.02L427.31 498L421.64 499.76L415.89 501.31L410.05 502.63L404.12 503.72L398.11 504.57L392.04 505.19L385.89 505.57L379.68 505.69L373.47 505.57L367.32 505.19L361.25 504.57L355.24 503.72L349.32 502.63L343.47 501.31L337.72 499.76L332.06 498L326.49 496.02L321.03 493.84L315.67 491.45L310.43 488.86L305.3 486.07L300.3 483.09L295.42 479.93L290.68 476.59L286.07 473.07L281.6 469.39L277.28 465.53L273.11 461.52L269.1 457.35L265.24 453.03L261.55 448.56L258.04 443.95L254.7 439.21L251.53 434.33L248.56 429.32L245.77 424.2L243.18 418.96L240.79 413.6L238.6 408.14L236.63 402.57L234.86 396.91L233.32 391.15L232 385.31L230.91 379.38L230.05 373.38L229.44 367.3L229.06 361.16L228.94 354.95L229.06 348.74L229.44 342.59L230.05 336.51L230.91 330.51L232 324.58L233.32 318.74L234.86 312.98L236.63 307.32L238.6 301.76L240.79 296.29L243.18 290.94L245.77 285.7L248.56 280.57L251.53 275.57L254.7 270.69L258.04 265.94L261.55 261.33L265.24 256.87L269.1 252.55L273.11 248.38L277.28 244.36L281.6 240.51L286.07 236.82L290.68 233.3L295.42 229.96L300.3 226.8L305.3 223.82L310.43 221.04L315.67 218.45L321.03 216.06L326.49 213.87L332.06 211.89L337.72 210.13L343.47 208.59L349.32 207.27L355.24 206.18L361.25 205.32L367.32 204.7L373.47 204.33L379.68 204.2L385.89 204.33L392.04 204.7L398.11 205.32L404.12 206.18L410.05 207.27L415.89 208.59L421.64 210.13L427.31 211.89L432.87 213.87L438.33 216.06L443.69 218.45L448.93 221.04L454.06 223.82L459.06 226.8L463.94 229.96L467.87 232.73L458.41 263.67L411.3 417.87L516.66 417.87L518.57 413.6L520.76 408.14L522.74 402.57L524.5 396.91L526.04 391.15L527.36 385.31L528.45 379.38L529.31 373.38L529.93 367.3L530.3 361.16L530.43 354.95L530.3 348.74L529.93 342.59L529.31 336.51L528.45 330.51L527.36 324.58L526.04 318.74L524.5 312.98L522.74 307.32L520.76 301.76L518.57 296.29L516.18 290.94L513.59 285.7L510.8 280.57L507.83 275.57L504.67 270.69L501.32 265.94L497.81 261.33L494.12 256.87L490.27 252.55L486.25 248.38L482.08 244.36L477.76 240.51L473.29 236.82L468.68 233.3L467.87 232.73L505.53 109.47L552.65 263.67L599.77 417.87Z" id="a2SuEEa7s9" fill="white" fill-opacity="1" filter="url(#shadow9485461)"></path></g><use xlink:href="#a1aOld7JLH" opacity="1" fill="#ff1b1b" fill-opacity="1"></use></g></g></g></svg>