<svg id="Capa_1" enable-background="new 0 0 512 512" height="512" viewBox="0 0 512 512" width="512" xmlns="http://www.w3.org/2000/svg"><g><g><g><path d="m489.852 512h-467.704v-64.995c0-34.8 20.357-66.837 51.862-81.617l113.8-53.388h136.38l113.799 53.388c31.505 14.781 51.862 46.818 51.862 81.618v64.994z" fill="#fed330"/></g></g><path d="m489.852 447.005c0-34.8-20.357-66.837-51.862-81.618l-113.8-53.387h-68.19v200h233.852z" fill="#f9b700"/><path d="m189.408 367.201-10.068-51.228-51.857 24.329v171.698h91.151v-110.107c-14.213-6.308-25.24-18.873-29.226-34.692z" fill="#4fc16e"/><path d="m332.591 315.941-10.774 52.133c-4.119 15.223-14.778 27.301-28.451 33.561v110.365h91.151v-171.698z" fill="#369151"/><path d="m256 360.667c-57.05 0-103.463-48.971-103.463-109.165v-175.382h206.926v175.382c0 60.193-46.413 109.165-103.463 109.165z" fill="#ffbeaa"/><path d="m256 76.12v284.546c57.05 0 103.463-48.971 103.463-109.165v-175.381z" fill="#ffa68d"/><g><g><path d="m325.383 205.92c-28.72 0-54.135-14.423-69.383-36.406-15.248 21.983-40.663 36.406-69.383 36.406-21.33 0-41.695-7.983-57.344-22.478-15.648-14.495-25.163-34.19-26.793-55.458l-.113-1.474c-3.397-44.346 28.445-83.889 72.494-90.025l81.139-11.303 81.139 11.304c44.049 6.136 75.892 45.679 72.494 90.023l-.113 1.478c-1.63 21.266-11.145 40.961-26.793 55.456-15.649 14.495-36.014 22.477-57.344 22.477z" fill="#f3403f"/></g></g><path d="m337.139 36.485-81.139-11.303v144.333c15.248 21.983 40.663 36.406 69.383 36.406 21.33 0 41.695-7.983 57.344-22.478 15.648-14.495 25.163-34.19 26.793-55.456l.113-1.478c3.397-44.344-28.445-83.887-72.494-90.024z" fill="#d10040"/><g><g><path d="m256 169.515-.223-.003c-19.608-.287-48.782-13.901-48.782-50.234 0-37.722 32.342-91.916 36.029-97.972l12.976-21.306 12.976 21.306c3.687 6.056 36.029 60.25 36.029 97.972 0 36.333-29.174 49.947-48.782 50.234zm.302-30.386c.001.001.002.001.004.001l.039-.001z" fill="#f77"/></g></g><path d="m268.976 21.306-12.976-21.306v169.515l.223-.003c19.608-.287 48.782-13.901 48.782-50.234 0-37.723-32.342-91.917-36.029-97.972zm-12.67 117.824c-.002 0-.003 0-.004 0h.042z" fill="#f3403f"/></g></svg>