<svg id="Capa_1" enable-background="new 0 0 512 512" height="512" viewBox="0 0 512 512" width="512" xmlns="http://www.w3.org/2000/svg"><g><path d="m387.024 474.634h-262.048v-183.042l67.612-120.936h126.824l67.612 120.936z" fill="#ce7000"/><path d="m387.024 291.592-67.612-120.936h-63.412v303.978h131.024z" fill="#823c08"/><path d="m241 257.63h30v52.578h-30z" fill="#f9b700"/><path d="m256 257.63h15v52.578h-15z" fill="#f49d14"/><path d="m216 374.634h80v30h-80z" fill="#f9b700"/><path d="m256 374.634h40v30h-40z" fill="#f49d14"/><path d="m461.756 437.269h-104.732v-156.769h54.731c27.57 0 50 22.43 50 50v106.769z" fill="#f49d14"/><path d="m154.976 437.269h-104.732v-106.769c0-27.57 22.43-50 50-50h54.731v156.769z" fill="#f9b700"/><g><g><path d="m342.14 310.5h-30.516v-109.844h-111.248v109.844h-30.516c-38.555 0-69.922-31.367-69.922-69.922 0-22.013-17.909-39.922-39.922-39.922h-26.915l102.957-200.656h239.884l102.957 200.656h-26.916c-22.013 0-39.922 17.909-39.922 39.922.001 38.555-31.367 69.922-69.921 69.922z" fill="#fee46f"/></g></g><path d="m375.942 0h-119.942v200.656h55.624v109.844h30.516c38.555 0 69.922-31.367 69.922-69.922 0-22.013 17.909-39.922 39.922-39.922h26.916z" fill="#fed330"/><path d="m408.936 64.302h-305.872l-31.133 60.677h368.138z" fill="#f9b700"/><path d="m451.983 200.656h26.916l-7.697-15h-430.405l-7.697 15h26.916c22.013 0 39.922 17.909 39.922 39.922 0 1.94.1 3.855.256 5.755h100.182v-45.677h111.248v45.677h100.181c.156-1.9.256-3.816.256-5.755.001-22.013 17.91-39.922 39.922-39.922z" fill="#f9b700"/><g><path d="m200.376 200.656h111.248v45.677h-111.248z" fill="#f9b700"/><g fill="#f49d14"><path d="m408.936 64.302h-152.936v60.677h184.069z"/><path d="m471.203 185.656h-215.203v15h55.624v45.677h100.181c.156-1.9.256-3.816.256-5.755 0-22.013 17.909-39.922 39.922-39.922h26.916z"/></g></g><g><path d="m256.008 272.63c-.004 0-.005 0-.009 0-47.19 0-85.584-38.393-85.584-85.583v-77.067h171.17v77.067c0 22.783-8.924 44.254-25.127 60.458-16.201 16.201-37.671 25.125-60.45 25.125z" fill="#f9ecd7"/></g><path d="m256 109.979v162.65h.008c22.779 0 44.249-8.924 60.45-25.125 16.203-16.204 25.127-37.675 25.127-60.458v-77.067z" fill="#f5d7b0"/><g><g><g><path d="m512 512h-205.221v-54.731c0-27.57 22.43-50 50-50h105.221c27.57 0 50 22.43 50 50z" fill="#fed330"/></g></g><g><g><path d="m205.22 512h-205.22v-54.731c0-27.57 22.43-50 50-50h105.22c27.57 0 50 22.43 50 50z" fill="#fee46f"/></g></g></g><path d="m380.196 407.269h58.388v104.731h-58.388z" fill="#f9b700"/><path d="m73.457 407.269h58.388v104.731h-58.388z" fill="#fed330"/><path d="m341.585 124.979h-171.17v-124.979h70.585l15 16.01 15-16.01h70.585z" fill="#f9b700"/><path d="m341.585 0h-70.585l-15 16.01v108.969h85.585z" fill="#f49d14"/><path d="m241 0h30v64.333h-30z" fill="#fee46f"/><path d="m256 0h15v64.333h-15z" fill="#fed330"/></g></svg>